<?xml version="1.0" encoding="UTF-8" standalone="no"?>
<svg
   xmlns:dc="http://purl.org/dc/elements/1.1/"
   xmlns:cc="http://creativecommons.org/ns#"
   xmlns:rdf="http://www.w3.org/1999/02/22-rdf-syntax-ns#"
   xmlns:svg="http://www.w3.org/2000/svg"
   xmlns="http://www.w3.org/2000/svg"
   xmlns:sodipodi="http://sodipodi.sourceforge.net/DTD/sodipodi-0.dtd"
   xmlns:inkscape="http://www.inkscape.org/namespaces/inkscape"
   width="210mm"
   height="297mm"
   viewBox="0 0 210 297"
   version="1.1"
   id="svg8"
   inkscape:version="1.0.2-2 (e86c870879, 2021-01-15)"
   sodipodi:docname="pattern.svg">
  <defs
     id="defs2">
    <clipPath
       clipPathUnits="userSpaceOnUse"
       id="clipPath2054">
      <rect
         style="fill:#f9f9f9;fill-rule:evenodd;stroke-width:0.201047"
         id="rect2056"
         width="227.95912"
         height="227.95912"
         x="120.75305"
         y="-166.09346"
         transform="rotate(39.775837)" />
    </clipPath>
    <clipPath
       clipPathUnits="userSpaceOnUse"
       id="clipPath2058">
      <rect
         style="fill:#f9f9f9;fill-rule:evenodd;stroke-width:0.201047"
         id="rect2060"
         width="227.95912"
         height="227.95912"
         x="120.75305"
         y="61.865665"
         transform="rotate(39.775837)" />
    </clipPath>
    <clipPath
       clipPathUnits="userSpaceOnUse"
       id="clipPath2062">
      <rect
         style="fill:#f9f9f9;fill-rule:evenodd;stroke-width:0.201047"
         id="rect2064"
         width="227.95912"
         height="227.95912"
         x="-107.20607"
         y="61.865665"
         transform="rotate(39.775837)" />
    </clipPath>
    <clipPath
       clipPathUnits="userSpaceOnUse"
       id="clipPath2066">
      <rect
         style="fill:#f9f9f9;fill-rule:evenodd;stroke-width:0.201047"
         id="rect2068"
         width="227.95912"
         height="227.95912"
         x="-107.20607"
         y="-166.09346"
         transform="rotate(39.775837)" />
    </clipPath>
    <clipPath
       clipPathUnits="userSpaceOnUse"
       id="clipPath2070">
      <rect
         style="fill:#f9f9f9;fill-rule:evenodd;stroke-width:0.341876"
         id="rect2072"
         width="387.63931"
         height="387.63931"
         x="-100.38322"
         y="-178.7991"
         transform="rotate(0.07171371)" />
    </clipPath>
    <clipPath
       clipPathUnits="userSpaceOnUse"
       id="clipPath2074">
      <rect
         style="fill:#f9f9f9;fill-rule:evenodd;stroke-width:0.114558"
         id="rect2076"
         width="129.8925"
         height="129.8925"
         x="112.26981"
         y="178.26018"
         transform="rotate(-8.7313417)" />
    </clipPath>
    <clipPath
       clipPathUnits="userSpaceOnUse"
       id="clipPath2078">
      <rect
         style="fill:#f9f9f9;fill-rule:evenodd;stroke-width:0.341876"
         id="rect2080"
         width="387.63931"
         height="387.63931"
         x="-100.38322"
         y="208.84021"
         transform="rotate(0.07171371)" />
    </clipPath>
    <clipPath
       clipPathUnits="userSpaceOnUse"
       id="clipPath2082">
      <rect
         style="fill:#f9f9f9;fill-rule:evenodd;stroke-width:0.114558"
         id="rect2084"
         width="129.8925"
         height="129.8925"
         x="-17.622686"
         y="178.26018"
         transform="rotate(-8.7313417)" />
    </clipPath>
    <clipPath
       clipPathUnits="userSpaceOnUse"
       id="clipPath2086">
      <rect
         style="fill:#f9f9f9;fill-rule:evenodd;stroke-width:0.684107"
         id="rect2088"
         width="775.6806"
         height="775.6806"
         x="-455.89301"
         y="-403.34955"
         transform="rotate(3.2482077)" />
    </clipPath>
    <clipPath
       clipPathUnits="userSpaceOnUse"
       id="clipPath2090">
      <rect
         style="fill:#f9f9f9;fill-rule:evenodd;stroke-width:0.201047"
         id="rect2092"
         width="227.95912"
         height="227.95912"
         x="-107.20607"
         y="-166.09346"
         transform="rotate(39.775837)" />
    </clipPath>
    <clipPath
       clipPathUnits="userSpaceOnUse"
       id="clipPath2094">
      <rect
         style="fill:#f9f9f9;fill-rule:evenodd;stroke-width:0.201047"
         id="rect2096"
         width="227.95914"
         height="227.95914"
         x="131.4986"
         y="61.604073"
         transform="rotate(27.928671)" />
    </clipPath>
    <clipPath
       clipPathUnits="userSpaceOnUse"
       id="clipPath2098">
      <rect
         style="fill:#f9f9f9;fill-rule:evenodd;stroke-width:0.264583"
         id="rect2100"
         width="300"
         height="300"
         x="-108.58607"
         y="-49.795769"
         transform="rotate(-28.277833)" />
    </clipPath>
    <clipPath
       clipPathUnits="userSpaceOnUse"
       id="clipPath2102">
      <rect
         style="fill:#f9f9f9;fill-rule:evenodd;stroke-width:0.264583"
         id="rect2104"
         width="300"
         height="300"
         x="-72.571426"
         y="30.238096" />
    </clipPath>
  </defs>
  <sodipodi:namedview
     id="base"
     pagecolor="#ffffff"
     bordercolor="#666666"
     borderopacity="1.0"
     inkscape:pageopacity="0.0"
     inkscape:pageshadow="2"
     inkscape:zoom="0.11313708"
     inkscape:cx="2033.2056"
     inkscape:cy="1203.1408"
     inkscape:document-units="mm"
     inkscape:current-layer="layer1"
     inkscape:document-rotation="0"
     showgrid="false"
     showborder="false"
     inkscape:snap-global="false"
     inkscape:window-width="1024"
     inkscape:window-height="705"
     inkscape:window-x="-8"
     inkscape:window-y="-8"
     inkscape:window-maximized="1" />
  <metadata
     id="metadata5">
    <rdf:RDF>
      <cc:Work
         rdf:about="">
        <dc:format>image/svg+xml</dc:format>
        <dc:type
           rdf:resource="http://purl.org/dc/dcmitype/StillImage" />
        <dc:title></dc:title>
      </cc:Work>
    </rdf:RDF>
  </metadata>
  <g
     inkscape:label="Layer 1"
     inkscape:groupmode="layer"
     id="layer1">
    <g
       id="g1677"
       transform="matrix(0.77391473,-9.6866342e-4,9.6866342e-4,0.77391473,5.116686,468.61346)">
      <rect
         style="opacity:0.25;fill:#ffffff;stroke:#000000;stroke-width:0.502969;stroke-miterlimit:4;stroke-dasharray:none;stroke-opacity:1"
         id="rect1663"
         width="35.926365"
         height="47.33828"
         x="115.46241"
         y="194.8011"
         ry="2.1133158" />
      <path
         style="opacity:0.25;fill:none;stroke:#000000;stroke-width:0.140793px;stroke-linecap:butt;stroke-linejoin:miter;stroke-opacity:1"
         d="m 117.15076,195.0937 16.4546,13.53176 16.07193,-13.53176 z"
         id="path1665" />
      <g
         id="g1671"
         transform="matrix(0.55911352,0,0,0.55911352,83.287173,126.17117)">
        <circle
           style="opacity:0.25;fill:#f9f9f9;stroke:#000000;stroke-width:0.7;stroke-miterlimit:4;stroke-dasharray:none;stroke-opacity:1"
           id="circle1667"
           cx="89.901878"
           cy="146.43382"
           r="3.4582441" />
        <ellipse
           style="opacity:1;fill:#f9f9f9;stroke:#000000;stroke-width:0;stroke-miterlimit:4;stroke-dasharray:none;stroke-opacity:1"
           id="ellipse1669"
           cx="89.902786"
           cy="146.43434"
           rx="3.2190936"
           ry="3.1963525" />
      </g>
      <circle
         style="opacity:0.25;fill:#f9f9f9;stroke:#000000;stroke-width:0.209476;stroke-miterlimit:4;stroke-dasharray:none;stroke-opacity:1"
         id="circle1673"
         cx="132.77463"
         cy="207.98839"
         r="0.22923586" />
      <circle
         style="opacity:0.25;fill:#f9f9f9;stroke:#000000;stroke-width:0.209476;stroke-miterlimit:4;stroke-dasharray:none;stroke-opacity:1"
         id="circle1675"
         cx="134.32501"
         cy="207.98839"
         r="0.22923586" />
    </g>
    <g
       id="g2174">
      <rect
         style="fill:#f9f9f9;fill-rule:evenodd;stroke-width:0.264583"
         id="rect10"
         width="300"
         height="300"
         x="-72.571426"
         y="30.238096"
         clip-path="url(#clipPath2102)" />
      <g
         id="g849"
         transform="rotate(28.277833,-140.85002,111.50157)"
         style="opacity:0.25"
         clip-path="url(#clipPath2098)">
        <rect
           style="fill:#ffffff;stroke:#000000;stroke-width:0.899583;stroke-miterlimit:4;stroke-dasharray:none;stroke-opacity:1"
           id="rect14"
           width="60.476189"
           height="77.10714"
           x="20.410721"
           y="130.0238" />
        <path
           style="fill:none;stroke:#000000;stroke-width:1.08532;stroke-linecap:butt;stroke-linejoin:miter;stroke-miterlimit:4;stroke-dasharray:none;stroke-opacity:1"
           d="m 28.72619,151.19047 c 0.251984,-1.25992 0.04323,-2.71068 0.755952,-3.77976 0.752716,-1.12907 2.44125,-1.28882 3.779763,-1.5119 1.618356,-0.26973 13.028576,-0.66726 14.363094,0 3.146092,1.57304 -0.80814,-0.0522 0.755952,1.5119 0.66117,0.66117 7.274145,0.20827 8.315476,0 3.241783,-0.64835 4.963157,-4.2072 6.803572,-6.04762 0.908542,-0.90854 2.871221,-0.15259 3.779761,0.75596 0.356359,0.35636 -0.159367,1.0338 0,1.5119 1.827032,5.48109 0.717346,1.07602 3.023812,4.53571 0.27955,0.41933 -0.503971,1.51191 0,1.51191 0.91532,0 1.69238,-0.93643 2.267855,-1.51191"
           id="path16" />
        <path
           style="fill:none;stroke:#000000;stroke-width:0.79375;stroke-linecap:butt;stroke-linejoin:miter;stroke-miterlimit:4;stroke-dasharray:none;stroke-opacity:1"
           d="m 32.505951,176.1369 c -0.738259,-6.27522 2.693591,-9.07143 8.315476,-9.07143 1.852787,0 2.321062,-0.33807 3.779763,0.75596 2.027217,1.52041 0.498761,3.65116 2.267858,4.53571 2.73349,1.36675 4.887907,-1.31003 6.80357,-2.26786 1.166299,-0.58315 7.339049,-0.32547 8.315475,0 2.746259,0.91542 1.715336,1.64753 3.779764,3.02381 0.745701,0.49714 3.600981,0 4.535715,0"
           id="path18" />
        <path
           style="fill:none;stroke:#000000;stroke-width:0.79375;stroke-linecap:butt;stroke-linejoin:miter;stroke-miterlimit:4;stroke-dasharray:none;stroke-opacity:1"
           d="m 34.017857,194.27976 c 3.413665,-3.41601 12.883959,-8.15118 18.142857,-6.04762 8.733258,3.4933 3.266562,5.29167 13.607143,5.29167 1.32453,0 9.071427,0.59975 9.071427,-0.75595"
           id="path20" />
      </g>
      <g
         id="g893"
         transform="matrix(1.1627497,-0.61638944,0.61638944,1.1627497,-245.62692,-50.834427)"
         clip-path="url(#clipPath2094)">
        <rect
           style="opacity:0.25;fill:#ffffff;stroke:#000000;stroke-width:0.502969;stroke-miterlimit:4;stroke-dasharray:none;stroke-opacity:1"
           id="rect851"
           width="35.926365"
           height="47.33828"
           x="115.46241"
           y="194.8011"
           ry="2.1133158" />
        <path
           style="opacity:0.25;fill:none;stroke:#000000;stroke-width:0.140793px;stroke-linecap:butt;stroke-linejoin:miter;stroke-opacity:1"
           d="m 117.15076,195.0937 16.4546,13.53176 16.07193,-13.53176 z"
           id="path853" />
        <g
           id="g861"
           transform="matrix(0.55911352,0,0,0.55911352,83.287173,126.17117)">
          <circle
             style="opacity:0.25;fill:#f9f9f9;stroke:#000000;stroke-width:0.7;stroke-miterlimit:4;stroke-dasharray:none;stroke-opacity:1"
             id="path855"
             cx="89.901878"
             cy="146.43382"
             r="3.4582441" />
          <ellipse
             style="opacity:1;fill:#f9f9f9;stroke:#000000;stroke-width:0;stroke-miterlimit:4;stroke-dasharray:none;stroke-opacity:1"
             id="path857"
             cx="89.902786"
             cy="146.43434"
             rx="3.2190936"
             ry="3.1963525" />
        </g>
        <circle
           style="opacity:0.25;fill:#f9f9f9;stroke:#000000;stroke-width:0.209476;stroke-miterlimit:4;stroke-dasharray:none;stroke-opacity:1"
           id="path867"
           cx="132.77463"
           cy="207.98839"
           r="0.22923586" />
        <circle
           style="opacity:0.25;fill:#f9f9f9;stroke:#000000;stroke-width:0.209476;stroke-miterlimit:4;stroke-dasharray:none;stroke-opacity:1"
           id="circle869"
           cx="134.32501"
           cy="207.98839"
           r="0.22923586" />
      </g>
      <g
         id="g901"
         transform="matrix(1.0114358,-0.84197415,0.84197415,1.0114358,68.514489,248.82131)"
         clip-path="url(#clipPath2090)">
        <rect
           style="opacity:0.25;fill:#f9f9f9;stroke:#000000;stroke-width:0.603142;stroke-miterlimit:4;stroke-dasharray:none;stroke-opacity:1"
           id="rect895"
           width="56.867661"
           height="29.29546"
           x="24.572847"
           y="108.18143"
           ry="2.1133087" />
        <path
           style="opacity:0.25;fill:none;stroke:#000000;stroke-width:0.193971px;stroke-linecap:butt;stroke-linejoin:miter;stroke-opacity:1"
           d="m 26.431981,108.18007 26.792422,16.62307 26.134433,-16.62307"
           id="path897" />
      </g>
      <g
         id="g911"
         transform="matrix(0.38613577,-0.02191426,0.02191426,0.38613577,103.74844,186.23641)"
         style="opacity:0.25"
         clip-path="url(#clipPath2086)">
        <rect
           style="fill:#ffffff;stroke:#000000;stroke-width:0.899583;stroke-miterlimit:4;stroke-dasharray:none;stroke-opacity:1"
           id="rect903"
           width="60.476189"
           height="77.10714"
           x="20.410721"
           y="130.0238" />
        <path
           style="fill:none;stroke:#000000;stroke-width:1.08532;stroke-linecap:butt;stroke-linejoin:miter;stroke-miterlimit:4;stroke-dasharray:none;stroke-opacity:1"
           d="m 28.72619,151.19047 c 0.251984,-1.25992 0.04323,-2.71068 0.755952,-3.77976 0.752716,-1.12907 2.44125,-1.28882 3.779763,-1.5119 1.618356,-0.26973 13.028576,-0.66726 14.363094,0 3.146092,1.57304 -0.80814,-0.0522 0.755952,1.5119 0.66117,0.66117 7.274145,0.20827 8.315476,0 3.241783,-0.64835 4.963157,-4.2072 6.803572,-6.04762 0.908542,-0.90854 2.871221,-0.15259 3.779761,0.75596 0.356359,0.35636 -0.159367,1.0338 0,1.5119 1.827032,5.48109 0.717346,1.07602 3.023812,4.53571 0.27955,0.41933 -0.503971,1.51191 0,1.51191 0.91532,0 1.69238,-0.93643 2.267855,-1.51191"
           id="path905" />
        <path
           style="fill:none;stroke:#000000;stroke-width:0.79375;stroke-linecap:butt;stroke-linejoin:miter;stroke-miterlimit:4;stroke-dasharray:none;stroke-opacity:1"
           d="m 32.505951,176.1369 c -0.738259,-6.27522 2.693591,-9.07143 8.315476,-9.07143 1.852787,0 2.321062,-0.33807 3.779763,0.75596 2.027217,1.52041 0.498761,3.65116 2.267858,4.53571 2.73349,1.36675 4.887907,-1.31003 6.80357,-2.26786 1.166299,-0.58315 7.339049,-0.32547 8.315475,0 2.746259,0.91542 1.715336,1.64753 3.779764,3.02381 0.745701,0.49714 3.600981,0 4.535715,0"
           id="path907" />
        <path
           style="fill:none;stroke:#000000;stroke-width:0.79375;stroke-linecap:butt;stroke-linejoin:miter;stroke-miterlimit:4;stroke-dasharray:none;stroke-opacity:1"
           d="m 34.017857,194.27976 c 3.413665,-3.41601 12.883959,-8.15118 18.142857,-6.04762 8.733258,3.4933 3.266562,5.29167 13.607143,5.29167 1.32453,0 9.071427,0.59975 9.071427,-0.75595"
           id="path909" />
      </g>
      <g
         id="g964"
         transform="matrix(2.2828362,0.35060112,-0.35060112,2.2828362,-31.870032,-381.47199)"
         clip-path="url(#clipPath2082)">
        <rect
           style="opacity:0.25;fill:#ffffff;stroke:#000000;stroke-width:0.502969;stroke-miterlimit:4;stroke-dasharray:none;stroke-opacity:1"
           id="rect950"
           width="35.926365"
           height="47.33828"
           x="115.46241"
           y="194.8011"
           ry="2.1133158" />
        <path
           style="opacity:0.25;fill:none;stroke:#000000;stroke-width:0.140793px;stroke-linecap:butt;stroke-linejoin:miter;stroke-opacity:1"
           d="m 117.15076,195.0937 16.4546,13.53176 16.07193,-13.53176 z"
           id="path952" />
        <g
           id="g958"
           transform="matrix(0.55911352,0,0,0.55911352,83.287173,126.17117)">
          <circle
             style="opacity:0.25;fill:#f9f9f9;stroke:#000000;stroke-width:0.7;stroke-miterlimit:4;stroke-dasharray:none;stroke-opacity:1"
             id="circle954"
             cx="89.901878"
             cy="146.43382"
             r="3.4582441" />
          <ellipse
             style="opacity:1;fill:#f9f9f9;stroke:#000000;stroke-width:0;stroke-miterlimit:4;stroke-dasharray:none;stroke-opacity:1"
             id="ellipse956"
             cx="89.902786"
             cy="146.43434"
             rx="3.2190936"
             ry="3.1963525" />
        </g>
        <circle
           style="opacity:0.25;fill:#f9f9f9;stroke:#000000;stroke-width:0.209476;stroke-miterlimit:4;stroke-dasharray:none;stroke-opacity:1"
           id="circle960"
           cx="132.77463"
           cy="207.98839"
           r="0.22923586" />
        <circle
           style="opacity:0.25;fill:#f9f9f9;stroke:#000000;stroke-width:0.209476;stroke-miterlimit:4;stroke-dasharray:none;stroke-opacity:1"
           id="circle962"
           cx="134.32501"
           cy="207.98839"
           r="0.22923586" />
      </g>
      <g
         id="g980"
         transform="matrix(0.77391473,-9.6866342e-4,9.6866342e-4,0.77391473,5.116686,-131.38654)"
         clip-path="url(#clipPath2078)">
        <rect
           style="opacity:0.25;fill:#ffffff;stroke:#000000;stroke-width:0.502969;stroke-miterlimit:4;stroke-dasharray:none;stroke-opacity:1"
           id="rect966"
           width="35.926365"
           height="47.33828"
           x="115.46241"
           y="194.8011"
           ry="2.1133158" />
        <path
           style="opacity:0.25;fill:none;stroke:#000000;stroke-width:0.140793px;stroke-linecap:butt;stroke-linejoin:miter;stroke-opacity:1"
           d="m 117.15076,195.0937 16.4546,13.53176 16.07193,-13.53176 z"
           id="path968" />
        <g
           id="g974"
           transform="matrix(0.55911352,0,0,0.55911352,83.287173,126.17117)">
          <circle
             style="opacity:0.25;fill:#f9f9f9;stroke:#000000;stroke-width:0.7;stroke-miterlimit:4;stroke-dasharray:none;stroke-opacity:1"
             id="circle970"
             cx="89.901878"
             cy="146.43382"
             r="3.4582441" />
          <ellipse
             style="opacity:1;fill:#f9f9f9;stroke:#000000;stroke-width:0;stroke-miterlimit:4;stroke-dasharray:none;stroke-opacity:1"
             id="ellipse972"
             cx="89.902786"
             cy="146.43434"
             rx="3.2190936"
             ry="3.1963525" />
        </g>
        <circle
           style="opacity:0.25;fill:#f9f9f9;stroke:#000000;stroke-width:0.209476;stroke-miterlimit:4;stroke-dasharray:none;stroke-opacity:1"
           id="circle976"
           cx="132.77463"
           cy="207.98839"
           r="0.22923586" />
        <circle
           style="opacity:0.25;fill:#f9f9f9;stroke:#000000;stroke-width:0.209476;stroke-miterlimit:4;stroke-dasharray:none;stroke-opacity:1"
           id="circle978"
           cx="134.32501"
           cy="207.98839"
           r="0.22923586" />
      </g>
      <g
         id="g1661"
         transform="matrix(2.2828362,0.35060112,-0.35060112,2.2828362,-331.87003,-381.47199)"
         clip-path="url(#clipPath2074)">
        <rect
           style="opacity:0.25;fill:#ffffff;stroke:#000000;stroke-width:0.502969;stroke-miterlimit:4;stroke-dasharray:none;stroke-opacity:1"
           id="rect1647"
           width="35.926365"
           height="47.33828"
           x="115.46241"
           y="194.8011"
           ry="2.1133158" />
        <path
           style="opacity:0.25;fill:none;stroke:#000000;stroke-width:0.140793px;stroke-linecap:butt;stroke-linejoin:miter;stroke-opacity:1"
           d="m 117.15076,195.0937 16.4546,13.53176 16.07193,-13.53176 z"
           id="path1649" />
        <g
           id="g1655"
           transform="matrix(0.55911352,0,0,0.55911352,83.287173,126.17117)">
          <circle
             style="opacity:0.25;fill:#f9f9f9;stroke:#000000;stroke-width:0.7;stroke-miterlimit:4;stroke-dasharray:none;stroke-opacity:1"
             id="circle1651"
             cx="89.901878"
             cy="146.43382"
             r="3.4582441" />
          <ellipse
             style="opacity:1;fill:#f9f9f9;stroke:#000000;stroke-width:0;stroke-miterlimit:4;stroke-dasharray:none;stroke-opacity:1"
             id="ellipse1653"
             cx="89.902786"
             cy="146.43434"
             rx="3.2190936"
             ry="3.1963525" />
        </g>
        <circle
           style="opacity:0.25;fill:#f9f9f9;stroke:#000000;stroke-width:0.209476;stroke-miterlimit:4;stroke-dasharray:none;stroke-opacity:1"
           id="circle1657"
           cx="132.77463"
           cy="207.98839"
           r="0.22923586" />
        <circle
           style="opacity:0.25;fill:#f9f9f9;stroke:#000000;stroke-width:0.209476;stroke-miterlimit:4;stroke-dasharray:none;stroke-opacity:1"
           id="circle1659"
           cx="134.32501"
           cy="207.98839"
           r="0.22923586" />
      </g>
      <g
         id="g1693"
         transform="matrix(0.77391473,-9.6866342e-4,9.6866342e-4,0.77391473,5.116686,168.61346)"
         clip-path="url(#clipPath2070)">
        <rect
           style="opacity:0.25;fill:#ffffff;stroke:#000000;stroke-width:0.502969;stroke-miterlimit:4;stroke-dasharray:none;stroke-opacity:1"
           id="rect1679"
           width="35.926365"
           height="47.33828"
           x="115.46241"
           y="194.8011"
           ry="2.1133158" />
        <path
           style="opacity:0.25;fill:none;stroke:#000000;stroke-width:0.140793px;stroke-linecap:butt;stroke-linejoin:miter;stroke-opacity:1"
           d="m 117.15076,195.0937 16.4546,13.53176 16.07193,-13.53176 z"
           id="path1681" />
        <g
           id="g1687"
           transform="matrix(0.55911352,0,0,0.55911352,83.287173,126.17117)">
          <circle
             style="opacity:0.25;fill:#f9f9f9;stroke:#000000;stroke-width:0.7;stroke-miterlimit:4;stroke-dasharray:none;stroke-opacity:1"
             id="circle1683"
             cx="89.901878"
             cy="146.43382"
             r="3.4582441" />
          <ellipse
             style="opacity:1;fill:#f9f9f9;stroke:#000000;stroke-width:0;stroke-miterlimit:4;stroke-dasharray:none;stroke-opacity:1"
             id="ellipse1685"
             cx="89.902786"
             cy="146.43434"
             rx="3.2190936"
             ry="3.1963525" />
        </g>
        <circle
           style="opacity:0.25;fill:#f9f9f9;stroke:#000000;stroke-width:0.209476;stroke-miterlimit:4;stroke-dasharray:none;stroke-opacity:1"
           id="circle1689"
           cx="132.77463"
           cy="207.98839"
           r="0.22923586" />
        <circle
           style="opacity:0.25;fill:#f9f9f9;stroke:#000000;stroke-width:0.209476;stroke-miterlimit:4;stroke-dasharray:none;stroke-opacity:1"
           id="circle1691"
           cx="134.32501"
           cy="207.98839"
           r="0.22923586" />
      </g>
      <g
         id="g1699"
         transform="matrix(1.0114358,-0.84197415,0.84197415,1.0114358,68.514489,248.82131)"
         clip-path="url(#clipPath2066)">
        <rect
           style="opacity:0.25;fill:#f9f9f9;stroke:#000000;stroke-width:0.603142;stroke-miterlimit:4;stroke-dasharray:none;stroke-opacity:1"
           id="rect1695"
           width="56.867661"
           height="29.29546"
           x="24.572847"
           y="108.18143"
           ry="2.1133087" />
        <path
           style="opacity:0.25;fill:none;stroke:#000000;stroke-width:0.193971px;stroke-linecap:butt;stroke-linejoin:miter;stroke-opacity:1"
           d="m 26.431981,108.18007 26.792422,16.62307 26.134433,-16.62307"
           id="path1697" />
      </g>
      <g
         id="g2038"
         transform="matrix(1.0114358,-0.84197415,0.84197415,1.0114358,68.514489,-51.17869)"
         clip-path="url(#clipPath2062)">
        <rect
           style="opacity:0.25;fill:#f9f9f9;stroke:#000000;stroke-width:0.603142;stroke-miterlimit:4;stroke-dasharray:none;stroke-opacity:1"
           id="rect2034"
           width="56.867661"
           height="29.29546"
           x="24.572847"
           y="108.18143"
           ry="2.1133087" />
        <path
           style="opacity:0.25;fill:none;stroke:#000000;stroke-width:0.193971px;stroke-linecap:butt;stroke-linejoin:miter;stroke-opacity:1"
           d="m 26.431981,108.18007 26.792422,16.62307 26.134433,-16.62307"
           id="path2036" />
      </g>
      <g
         id="g2044"
         transform="matrix(1.0114358,-0.84197415,0.84197415,1.0114358,-231.48551,-51.17869)"
         clip-path="url(#clipPath2058)">
        <rect
           style="opacity:0.25;fill:#f9f9f9;stroke:#000000;stroke-width:0.603142;stroke-miterlimit:4;stroke-dasharray:none;stroke-opacity:1"
           id="rect2040"
           width="56.867661"
           height="29.29546"
           x="24.572847"
           y="108.18143"
           ry="2.1133087" />
        <path
           style="opacity:0.25;fill:none;stroke:#000000;stroke-width:0.193971px;stroke-linecap:butt;stroke-linejoin:miter;stroke-opacity:1"
           d="m 26.431981,108.18007 26.792422,16.62307 26.134433,-16.62307"
           id="path2042" />
      </g>
      <g
         id="g2050"
         transform="matrix(1.0114358,-0.84197415,0.84197415,1.0114358,-231.48551,248.82131)"
         clip-path="url(#clipPath2054)">
        <rect
           style="opacity:0.25;fill:#f9f9f9;stroke:#000000;stroke-width:0.603142;stroke-miterlimit:4;stroke-dasharray:none;stroke-opacity:1"
           id="rect2046"
           width="56.867661"
           height="29.29546"
           x="24.572847"
           y="108.18143"
           ry="2.1133087" />
        <path
           style="opacity:0.25;fill:none;stroke:#000000;stroke-width:0.193971px;stroke-linecap:butt;stroke-linejoin:miter;stroke-opacity:1"
           d="m 26.431981,108.18007 26.792422,16.62307 26.134433,-16.62307"
           id="path2048" />
      </g>
    </g>
  </g>
</svg>
